<?xml version="1.0"?>
<svg width="24" height="15" xmlns="http://www.w3.org/2000/svg" xmlns:svg="http://www.w3.org/2000/svg" clip-rule="evenodd" fill-rule="evenodd" stroke-linejoin="round">
 <g class="layer">
  <title>Layer 1</title>
  <path d="m13.27,12.59c0,-0.45 -0.36,-0.8 -0.8,-0.8l-10.1,0c-0.44,0 -0.8,0.35 -0.8,0.8s0.36,0.8 0.8,0.8l10.1,0c0.44,0 0.8,-0.36 0.8,-0.8zm9.57,-5.32c0,-0.45 -0.36,-0.8 -0.8,-0.8l-19.67,0c-0.44,0 -0.8,0.35 -0.8,0.8s0.36,0.8 0.8,0.8l19.67,0c0.44,0 0.8,-0.36 0.8,-0.8zm-4.25,-5.32c0,-0.45 -0.36,-0.8 -0.8,-0.8l-15.42,0c-0.44,0 -0.8,0.35 -0.8,0.8s0.36,0.8 0.8,0.8l15.42,0c0.44,0 0.8,-0.36 0.8,-0.8z" fill-rule="nonzero" id="svg_1"/>
 </g>
</svg>